<?xml version="1.0" encoding="UTF-8" standalone="no"?>
<!-- Created with Inkscape (http://www.inkscape.org/) -->

<svg
   version="1.1"
   id="svg1"
   width="489.95868"
   height="224.01199"
   viewBox="0 0 489.95868 224.01199"
   sodipodi:docname="LEKI_Logo_black_freespace.28149.pdf"
   xmlns:inkscape="http://www.inkscape.org/namespaces/inkscape"
   xmlns:sodipodi="http://sodipodi.sourceforge.net/DTD/sodipodi-0.dtd"
   xmlns="http://www.w3.org/2000/svg"
   xmlns:svg="http://www.w3.org/2000/svg">
  <defs
     id="defs1" />
  <sodipodi:namedview
     id="namedview1"
     pagecolor="#ffffff"
     bordercolor="#000000"
     borderopacity="0.25"
     inkscape:showpageshadow="2"
     inkscape:pageopacity="0.0"
     inkscape:pagecheckerboard="0"
     inkscape:deskcolor="#d1d1d1">
    <inkscape:page
       x="0"
       y="0"
       inkscape:label="1"
       id="page1"
       width="489.95868"
       height="224.01199"
       margin="0"
       bleed="0" />
  </sodipodi:namedview>
  <g
     id="layer-MC0"
     inkscape:groupmode="layer"
     inkscape:label="Ebene 1">
    <path
       id="path1"
       d="m 0,0 h -16.873 v -42.688 c 0,-4.613 3.74,-8.353 8.352,-8.353 h 65.889 v 12.76 l -57.368,0 z"
       style="fill:#231f20;fill-opacity:1;fill-rule:nonzero;stroke:none"
       transform="matrix(1.3333333,0,0,-1.3333333,78.497867,56.002533)" />
    <path
       id="path2"
       d="M 0,0 C 0.454,-4.185 3.996,-7.443 8.3,-7.443 H 178.849 V 0 Z"
       style="fill:#ed1639;fill-opacity:1;fill-rule:nonzero;stroke:none"
       transform="matrix(1.3333333,0,0,-1.3333333,56.0084,158.08387)" />
    <path
       id="path3"
       d="m 0,0 c -0.453,-4.185 -3.995,-7.443 -8.3,-7.443 h -96.313 V 0 Z"
       style="fill:#fff200;fill-opacity:1;fill-rule:nonzero;stroke:none"
       transform="matrix(1.3333333,0,0,-1.3333333,433.9576,158.08387)" />
    <path
       id="path4"
       d="m 0,0 v -42.688 c 0,-4.613 3.738,-8.353 8.352,-8.353 h 8.521 V 0 Z"
       style="fill:#231f20;fill-opacity:1;fill-rule:nonzero;stroke:none"
       transform="matrix(1.3333333,0,0,-1.3333333,411.46013,56.002533)" />
    <path
       id="path5"
       d="m 0,0 v -42.688 c 0,-4.613 3.739,-8.353 8.352,-8.353 H 74.24 v 12.76 H 16.874 v 7.445 H 74.24 v 10.632 H 16.874 v 7.444 H 74.24 l 0,12.76 z"
       style="fill:#231f20;fill-opacity:1;fill-rule:nonzero;stroke:none"
       transform="matrix(1.3333333,0,0,-1.3333333,172.9868,56.002533)" />
    <path
       id="path6"
       d="M 0,0 -32.498,-22.344 V 0 h -16.873 v -52.055 l 24.411,16.781 22.934,-15.767 H 26.346 L -10.774,-25.52 26.346,0 Z"
       style="fill:#231f20;fill-opacity:1;fill-rule:nonzero;stroke:none"
       transform="matrix(1.3333333,0,0,-1.3333333,360.30133,56.002533)" />
  </g>
</svg>
